{
  "accessors": [
    {
      "bufferView": 3,
      "componentType": 5126,
      "count": 802,
      "max": [
        33.182273864746094,
        9.519495010375977,
        0.4215913414955139
      ],
      "min": [
        28.052696228027344,
        -19.44352912902832,
        -0.7571638226509094
      ],
      "type": "VEC3"
    },
    {
      "bufferView": 3,
      "byteOffset": 9624,
      "componentType": 5126,
      "count": 802,
      "max": [
        0.9998109936714172,
        0.9966613054275513,
        0.9999989867210388
      ],
      "min": [
        -0.9999704360961914,
        -1.0,
        -0.9999989867210388
      ],
      "type": "VEC3"
    },
    {
      "bufferView": 2,
      "componentType": 5126,
      "count": 802,
      "max": [
        0.9814642667770386,
        0.7303177714347839
      ],
      "min": [
        0.024896161630749702,
        0.17884522676467896
      ],
      "type": "VEC2"
    },
    {
      "bufferView": 1,
      "componentType": 5125,
      "count": 4800,
      "type": "SCALAR"
    },
    {
      "bufferView": 3,
      "byteOffset": 19248,
      "componentType": 5126,
      "count": 3864,
      "max": [
        169.44088745117188,
        114.11412048339844,
        25.98023223876953
      ],
      "min": [
        -169.44085693359375,
        -294.7439270019531,
        -24.660966873168945
      ],
      "type": "VEC3"
    },
    {
      "bufferView": 3,
      "byteOffset": 65616,
      "componentType": 5126,
      "count": 3864,
      "max": [
        0.999792218208313,
        0.997468888759613,
        0.9999998211860657
      ],
      "min": [
        -0.999792218208313,
        -0.9995607733726501,
        -0.9991342425346375
      ],
      "type": "VEC3"
    },
    {
      "bufferView": 2,
      "byteOffset": 6416,
      "componentType": 5126,
      "count": 3864,
      "max": [
        0.9651424288749695,
        0.9971768856048584
      ],
      "min": [
        0.2231403887271881,
        0.006760835647583008
      ],
      "type": "VEC2"
    },
    {
      "bufferView": 1,
      "byteOffset": 19200,
      "componentType": 5125,
      "count": 21120,
      "type": "SCALAR"
    },
    {
      "bufferView": 3,
      "byteOffset": 111984,
      "componentType": 5126,
      "count": 226,
      "max": [
        48.292205810546875,
        138.65435791015625,
        42.59567642211914
      ],
      "min": [
        -48.2391471862793,
        107.12403869628906,
        28.366003036499023
      ],
      "type": "VEC3"
    },
    {
      "bufferView": 3,
      "byteOffset": 114696,
      "componentType": 5126,
      "count": 226,
      "max": [
        0.8457142114639282,
        -0.1513511687517166,
        0.9135494232177734
      ],
      "min": [
        -0.8472246527671814,
        -0.6771453022956848,
        0.3612886965274811
      ],
      "type": "VEC3"
    },
    {
      "bufferView": 2,
      "byteOffset": 37328,
      "componentType": 5126,
      "count": 226,
      "max": [
        1.000000238418579,
        1.000000238418579
      ],
      "min": [
        0.0,
        0.0
      ],
      "type": "VEC2"
    },
    {
      "bufferView": 1,
      "byteOffset": 103680,
      "componentType": 5125,
      "count": 1152,
      "type": "SCALAR"
    },
    {
      "bufferView": 3,
      "byteOffset": 117408,
      "componentType": 5126,
      "count": 244,
      "max": [
        78.5903549194336,
        221.26968383789063,
        83.72435760498047
      ],
      "min": [
        -78.5903549194336,
        101.35737609863281,
        -11.507892608642578
      ],
      "type": "VEC3"
    },
    {
      "bufferView": 3,
      "byteOffset": 120336,
      "componentType": 5126,
      "count": 244,
      "max": [
        0.9225335717201233,
        0.020650628954172134,
        0.9999901652336121
      ],
      "min": [
        -0.9225334525108337,
        -0.9949871897697449,
        -0.4430873692035675
      ],
      "type": "VEC3"
    },
    {
      "bufferView": 2,
      "byteOffset": 39136,
      "componentType": 5126,
      "count": 244,
      "max": [
        0.962483823299408,
        0.8550872802734375
      ],
      "min": [
        0.5606856942176819,
        0.5327326655387878
      ],
      "type": "VEC2"
    },
    {
      "bufferView": 1,
      "byteOffset": 108288,
      "componentType": 5125,
      "count": 1260,
      "type": "SCALAR"
    },
    {
      "bufferView": 3,
      "byteOffset": 123264,
      "componentType": 5126,
      "count": 1924,
      "max": [
        171.45172119140625,
        366.7861022949219,
        83.37049865722656
      ],
      "min": [
        -171.45172119140625,
        114.88529968261719,
        -104.01437377929688
      ],
      "type": "VEC3"
    },
    {
      "bufferView": 3,
      "byteOffset": 146352,
      "componentType": 5126,
      "count": 1924,
      "max": [
        0.9997310042381287,
        0.9981882572174072,
        0.9990146160125732
      ],
      "min": [
        -0.9997310042381287,
        -0.996061384677887,
        -0.99997478723526
      ],
      "type": "VEC3"
    },
    {
      "bufferView": 2,
      "byteOffset": 41088,
      "componentType": 5126,
      "count": 1924,
      "max": [
        0.49332016706466675,
        0.8498523235321045
      ],
      "min": [
        0.0167216956615448,
        0.03439992666244507
      ],
      "type": "VEC2"
    },
    {
      "bufferView": 1,
      "byteOffset": 113328,
      "componentType": 5125,
      "count": 10836,
      "type": "SCALAR"
    },
    {
      "bufferView": 5,
      "componentType": 5126,
      "count": 20,
      "max": [
        1.0,
        0.08060610294342041,
        0.007485122419893742,
        0.0,
        0.06630115956068039,
        1.0,
        0.004337290767580271,
        0.0,
        0.01696559228003025,
        0.014323097653687,
        1.0,
        0.0,
        2.9300289154052734,
        1.3050506114959717,
        0.3423769474029541,
        1.0
      ],
      "min": [
        -0.09628515690565109,
        -0.08060608804225922,
        -0.010454497300088406,
        0.0,
        -0.06630117446184158,
        -0.07993506640195847,
        -0.007289597298949957,
        0.0,
        -0.016965847462415695,
        -0.00852220505475998,
        0.15610970556735992,
        0.0,
        -0.9626431465148926,
        -3.372451066970825,
        -0.06750977039337158,
        1.0
      ],
      "type": "MAT4"
    },
    {
      "bufferView": 0,
      "componentType": 5123,
      "count": 802,
      "type": "VEC4"
    },
    {
      "bufferView": 4,
      "componentType": 5126,
      "count": 802,
      "max": [
        1.0,
        0.0,
        0.0,
        0.0
      ],
      "min": [
        1.0,
        0.0,
        0.0,
        0.0
      ],
      "type": "VEC4"
    },
    {
      "bufferView": 0,
      "byteOffset": 6416,
      "componentType": 5123,
      "count": 3864,
      "type": "VEC4"
    },
    {
      "bufferView": 4,
      "byteOffset": 12832,
      "componentType": 5126,
      "count": 3864,
      "max": [
        1.0,
        0.4998878538608551,
        0.24981604516506195,
        0.0
      ],
      "min": [
        0.43302345275878906,
        0.0,
        0.0,
        0.0
      ],
      "type": "VEC4"
    },
    {
      "bufferView": 0,
      "byteOffset": 37328,
      "componentType": 5123,
      "count": 226,
      "type": "VEC4"
    },
    {
      "bufferView": 4,
      "byteOffset": 74656,
      "componentType": 5126,
      "count": 226,
      "max": [
        1.0,
        0.0,
        0.0,
        0.0
      ],
      "min": [
        1.0,
        0.0,
        0.0,
        0.0
      ],
      "type": "VEC4"
    },
    {
      "bufferView": 0,
      "byteOffset": 39136,
      "componentType": 5123,
      "count": 244,
      "type": "VEC4"
    },
    {
      "bufferView": 4,
      "byteOffset": 78272,
      "componentType": 5126,
      "count": 244,
      "max": [
        1.0,
        0.0,
        0.0,
        0.0
      ],
      "min": [
        1.0,
        0.0,
        0.0,
        0.0
      ],
      "type": "VEC4"
    },
    {
      "bufferView": 0,
      "byteOffset": 41088,
      "componentType": 5123,
      "count": 1924,
      "type": "VEC4"
    },
    {
      "bufferView": 4,
      "byteOffset": 82176,
      "componentType": 5126,
      "count": 1924,
      "max": [
        1.0,
        0.0,
        0.0,
        0.0
      ],
      "min": [
        1.0,
        0.0,
        0.0,
        0.0
      ],
      "type": "VEC4"
    }
  ],
  "asset": {
    "extras": {
      "author": "Viry (https://sketchfab.com/chickennugget33)",
      "license": "CC-BY-4.0 (http://creativecommons.org/licenses/by/4.0/)",
      "source": "https://sketchfab.com/3d-models/hollow-knight-silksong-lace-rigged-0df5f938ba8745d1b3a5a2e79fa00235",
      "title": "Hollow Knight: Silksong: Lace [rigged]"
    },
    "generator": "Sketchfab-16.75.0",
    "version": "2.0"
  },
  "bufferViews": [
    {
      "buffer": 0,
      "byteLength": 56480,
      "byteStride": 8,
      "name": "shortBufferViews",
      "target": 34962
    },
    {
      "buffer": 0,
      "byteLength": 156672,
      "byteOffset": 56480,
      "name": "floatBufferViews",
      "target": 34963
    },
    {
      "buffer": 0,
      "byteLength": 56480,
      "byteOffset": 213152,
      "byteStride": 8,
      "name": "floatBufferViews",
      "target": 34962
    },
    {
      "buffer": 0,
      "byteLength": 169440,
      "byteOffset": 269632,
      "byteStride": 12,
      "name": "floatBufferViews",
      "target": 34962
    },
    {
      "buffer": 0,
      "byteLength": 112960,
      "byteOffset": 439072,
      "byteStride": 16,
      "name": "floatBufferViews",
      "target": 34962
    },
    {
      "buffer": 0,
      "byteLength": 1280,
      "byteOffset": 552032,
      "name": "floatBufferViews"
    }
  ],
  "buffers": [
    {
      "byteLength": 553312,
      "uri": "scene.bin"
    }
  ],
  "extensionsUsed": [
    "KHR_materials_specular"
  ],
  "images": [
    {
      "uri": "textures/Material.006_baseColor.png"
    },
    {
      "uri": "textures/Material.001_baseColor.png"
    },
    {
      "uri": "textures/face.001_baseColor.png"
    }
  ],
  "materials": [
    {
      "doubleSided": true,
      "name": "Material.006",
      "pbrMetallicRoughness": {
        "baseColorTexture": {
          "index": 0
        },
        "metallicFactor": 0.0,
        "roughnessFactor": 0.7470177871865296
      }
    },
    {
      "doubleSided": true,
      "name": "Material.001",
      "pbrMetallicRoughness": {
        "baseColorTexture": {
          "index": 1
        },
        "metallicFactor": 0.0,
        "roughnessFactor": 0.8211145618000169
      }
    },
    {
      "doubleSided": true,
      "name": "eyes.001",
      "pbrMetallicRoughness": {
        "baseColorFactor": [
          0.8,
          0.8,
          0.8,
          1.0
        ],
        "metallicFactor": 0.0,
        "roughnessFactor": 0.8040408205773457
      }
    },
    {
      "doubleSided": true,
      "name": "face.001",
      "pbrMetallicRoughness": {
        "baseColorTexture": {
          "index": 2
        },
        "metallicFactor": 0.0,
        "roughnessFactor": 0.908785965992069
      }
    },
    {
      "doubleSided": true,
      "extensions": {
        "KHR_materials_specular": {
          "specularColorFactor": [
            1.0,
            1.0,
            1.0
          ],
          "specularFactor": 0.5165730028891516
        }
      },
      "name": "Material.004",
      "pbrMetallicRoughness": {
        "baseColorTexture": {
          "index": 2
        },
        "metallicFactor": 0.0,
        "roughnessFactor": 0.5992368738647584
      }
    }
  ],
  "meshes": [
    {
      "name": "Pin_Material.006_0",
      "primitives": [
        {
          "attributes": {
            "JOINTS_0": 21,
            "NORMAL": 1,
            "POSITION": 0,
            "TEXCOORD_0": 2,
            "WEIGHTS_0": 22
          },
          "indices": 3,
          "material": 0,
          "mode": 4
        }
      ]
    },
    {
      "name": "body_Material.001_0",
      "primitives": [
        {
          "attributes": {
            "JOINTS_0": 23,
            "NORMAL": 5,
            "POSITION": 4,
            "TEXCOORD_0": 6,
            "WEIGHTS_0": 24
          },
          "indices": 7,
          "material": 1,
          "mode": 4
        }
      ]
    },
    {
      "name": "eyes_eyes.001_0",
      "primitives": [
        {
          "attributes": {
            "JOINTS_0": 25,
            "NORMAL": 9,
            "POSITION": 8,
            "TEXCOORD_0": 10,
            "WEIGHTS_0": 26
          },
          "indices": 11,
          "material": 2,
          "mode": 4
        }
      ]
    },
    {
      "name": "head_face.001_0",
      "primitives": [
        {
          "attributes": {
            "JOINTS_0": 27,
            "NORMAL": 13,
            "POSITION": 12,
            "TEXCOORD_0": 14,
            "WEIGHTS_0": 28
          },
          "indices": 15,
          "material": 3,
          "mode": 4
        }
      ]
    },
    {
      "name": "head_Material.004_0",
      "primitives": [
        {
          "attributes": {
            "JOINTS_0": 29,
            "NORMAL": 17,
            "POSITION": 16,
            "TEXCOORD_0": 18,
            "WEIGHTS_0": 30
          },
          "indices": 19,
          "material": 4,
          "mode": 4
        }
      ]
    }
  ],
  "nodes": [
    {
      "children": [
        1
      ],
      "matrix": [
        1.0,
        0.0,
        0.0,
        0.0,
        0.0,
        2.220446049250313e-16,
        -1.0,
        0.0,
        0.0,
        1.0,
        2.220446049250313e-16,
        0.0,
        0.0,
        0.0,
        0.0,
        1.0
      ],
      "name": "Sketchfab_model"
    },
    {
      "children": [
        2
      ],
      "matrix": [
        0.009999999776482582,
        0.0,
        0.0,
        0.0,
        0.0,
        0.0,
        0.009999999776482582,
        0.0,
        0.0,
        -0.009999999776482582,
        0.0,
        0.0,
        0.0,
        0.0,
        0.0,
        1.0
      ],
      "name": "lace rig.fbx"
    },
    {
      "children": [
        3
      ],
      "name": "RootNode"
    },
    {
      "children": [
        4
      ],
      "matrix": [
        100.0,
        0.0,
        0.0,
        0.0,
        0.0,
        -2.8212996916465727e-05,
        -99.99999999999602,
        0.0,
        0.0,
        99.99999999999602,
        -2.8212996916465727e-05,
        0.0,
        0.0,
        -103.17205047607422,
        0.0,
        1.0
      ],
      "name": "Armature"
    },
    {
      "children": [
        5,
        26,
        28,
        30,
        32,
        33,
        25,
        27,
        29,
        31
      ],
      "name": "Object_4"
    },
    {
      "children": [
        6
      ],
      "name": "_rootJoint"
    },
    {
      "children": [
        7,
        19,
        22
      ],
      "name": "lower torso_00",
      "rotation": [
        0.7071067094802856,
        8.429368136830817e-08,
        8.429368136830817e-08,
        0.7071068286895752
      ],
      "scale": [
        1.0,
        0.9999999403953552,
        0.9999999403953552
      ]
    },
    {
      "children": [
        8,
        10,
        15
      ],
      "name": "upper torso_01",
      "rotation": [
        0.010502465069293976,
        1.7764373075302396e-14,
        2.503982798884863e-09,
        0.9999448657035828
      ],
      "scale": [
        1.0,
        1.0000001192092896,
        1.0
      ],
      "translation": [
        -2.524354896707238e-29,
        0.9763728976249695,
        -1.0587911840678754e-22
      ]
    },
    {
      "children": [
        9
      ],
      "name": "neck_02",
      "rotation": [
        -0.0376368947327137,
        -1.0494733134283098e-14,
        -8.973334963968682e-09,
        0.9992914795875549
      ],
      "scale": [
        1.0,
        0.9999998807907104,
        1.0
      ],
      "translation": [
        1.3913813177852366e-17,
        0.9374188780784607,
        -2.3852447794681098e-18
      ]
    },
    {
      "name": "head_03",
      "rotation": [
        0.07273898273706436,
        1.0139224935990995e-14,
        1.7342326685820808e-08,
        0.9973509907722473
      ],
      "translation": [
        -1.651420750229662e-15,
        0.48383036255836487,
        4.6566128730773926e-09
      ]
    },
    {
      "children": [
        11
      ],
      "name": "upper arm.L_04",
      "rotation": [
        -0.04769213870167732,
        -0.006953952834010124,
        0.8797681927680969,
        -0.47295352816581726
      ],
      "scale": [
        1.0,
        0.9999999403953552,
        0.9999999403953552
      ],
      "translation": [
        0.3828480839729309,
        0.8955262303352356,
        -0.07759150862693787
      ]
    },
    {
      "children": [
        12,
        14
      ],
      "name": "lower arm.L_05",
      "rotation": [
        -0.010393975302577019,
        9.440431313123554e-06,
        -0.002772141247987747,
        0.9999422430992126
      ],
      "scale": [
        1.0,
        0.9999998211860657,
        1.0
      ],
      "translation": [
        1.755543053150177e-07,
        0.9259442090988159,
        7.450580596923828e-09
      ]
    },
    {
      "children": [
        13
      ],
      "name": "hand.L_06",
      "rotation": [
        0.0008664270280860364,
        1.4575666682503652e-06,
        -0.007974200882017612,
        0.9999679327011108
      ],
      "scale": [
        0.9999999403953552,
        0.9999999403953552,
        1.0
      ],
      "translation": [
        1.3969837509009153e-09,
        1.0132901668548584,
        -7.450580596923828e-09
      ]
    },
    {
      "name": "finger.L_07",
      "rotation": [
        0.0007943562814034522,
        -1.4370697272170219e-06,
        -0.007310815621167421,
        0.9999730587005615
      ],
      "scale": [
        0.9999999403953552,
        0.9999998807907104,
        0.9999998807907104
      ],
      "translation": [
        -3.25962878910957e-09,
        0.17295295000076294,
        7.450580596923828e-09
      ]
    },
    {
      "name": "weapon_08",
      "rotation": [
        0.050711024552583694,
        1.3531492868423811e-06,
        -0.46672314405441284,
        0.8829483985900879
      ],
      "scale": [
        0.9999999403953552,
        0.9999999403953552,
        1.0
      ],
      "translation": [
        -1.8070741891860962,
        0.939694881439209,
        -0.18105049431324005
      ]
    },
    {
      "children": [
        16
      ],
      "name": "upper arm.R_09",
      "rotation": [
        0.047692056745290756,
        -0.006954136770218611,
        0.8797681927680969,
        0.47295355796813965
      ],
      "scale": [
        1.0,
        0.9999999403953552,
        1.0
      ],
      "translation": [
        -0.38284802436828613,
        0.8955262303352356,
        -0.07759168744087219
      ]
    },
    {
      "children": [
        17
      ],
      "name": "lower arm.R_010",
      "rotation": [
        -0.010393992066383362,
        -9.436707841814496e-06,
        0.002772031119093299,
        0.9999422430992126
      ],
      "scale": [
        1.0,
        0.9999997615814209,
        0.9999999403953552
      ],
      "translation": [
        -6.658956408500671e-08,
        0.9259440898895264,
        7.450580596923828e-09
      ]
    },
    {
      "children": [
        18
      ],
      "name": "hand.R_011",
      "rotation": [
        0.0008665521163493395,
        -5.81164329105377e-07,
        0.007975023239850998,
        0.9999678134918213
      ],
      "scale": [
        1.0,
        0.9999999403953552,
        1.0
      ],
      "translation": [
        -7.310882210731506e-08,
        1.0132898092269897,
        7.450580596923828e-09
      ]
    },
    {
      "name": "finger.R_012",
      "rotation": [
        0.000794204359408468,
        4.898893735116872e-07,
        0.007309832610189915,
        0.9999730587005615
      ],
      "translation": [
        9.313225746154785e-10,
        0.17295339703559875,
        -3.725290298461914e-09
      ]
    },
    {
      "children": [
        20
      ],
      "name": "upper leg.L_013",
      "rotation": [
        1.9769220216403482e-06,
        -3.4423541794836865e-09,
        0.9986968636512756,
        -0.051037147641181946
      ],
      "scale": [
        1.0000269412994385,
        1.0,
        1.0
      ],
      "translation": [
        0.3740972578525543,
        -0.04856694117188454,
        0.005469337571412325
      ]
    },
    {
      "children": [
        21
      ],
      "name": "lower leg.L_014",
      "rotation": [
        0.002810379024595022,
        -1.286292786062404e-06,
        -0.0003867802442982793,
        0.9999960660934448
      ],
      "scale": [
        0.9999999403953552,
        1.0,
        1.0
      ],
      "translation": [
        -2.1746968670299793e-08,
        1.287607192993164,
        4.2095393837371375e-10
      ]
    },
    {
      "name": "foot.L_015",
      "rotation": [
        0.011813793331384659,
        1.0685907000151929e-05,
        0.0006163039361126721,
        0.9999300241470337
      ],
      "scale": [
        0.9999999403953552,
        1.0,
        1.0000001192092896
      ],
      "translation": [
        1.545822243542716e-07,
        0.9730677008628845,
        1.5133991837501526e-09
      ]
    },
    {
      "children": [
        23
      ],
      "name": "upper leg.R_016",
      "rotation": [
        -2.2150193217385095e-06,
        -1.5536588904296877e-08,
        0.9986968636512756,
        0.051037147641181946
      ],
      "scale": [
        1.0000269412994385,
        1.0,
        1.0
      ],
      "translation": [
        -0.3740972578525543,
        -0.04856694117188454,
        0.005469158757477999
      ]
    },
    {
      "children": [
        24
      ],
      "name": "lower leg.R_017",
      "rotation": [
        0.0028103787917643785,
        1.2862928997492418e-06,
        0.0003867802442982793,
        0.9999960660934448
      ],
      "scale": [
        0.9999999403953552,
        1.0,
        1.0
      ],
      "translation": [
        2.1746968670299793e-08,
        1.287607192993164,
        2.0648371901188511e-10
      ]
    },
    {
      "name": "foot.R_018",
      "rotation": [
        0.011813792400062084,
        -1.0685957931855228e-05,
        -0.0006163039361126721,
        0.9999300241470337
      ],
      "scale": [
        0.9999999403953552,
        1.0,
        1.0000001192092896
      ],
      "translation": [
        -1.545822243542716e-07,
        0.9730677008628845,
        1.5133991837501526e-09
      ]
    },
    {
      "matrix": [
        9.678433090448925,
        -1.1089587918386039e-07,
        -1.3467787140491528e-08,
        0.0,
        -1.1123267753051264e-08,
        -1.281932430492221e-06,
        -7.993567125096532,
        0.0,
        1.799634823830227e-07,
        15.706305497642015,
        -2.5188282111791486e-06,
        0.0,
        293.9314120685592,
        -49.14416418249619,
        -2.635272854854752,
        1.0
      ],
      "name": "Object_25"
    },
    {
      "mesh": 0,
      "name": "Object_26",
      "skin": 0
    },
    {
      "matrix": [
        33.822008967401516,
        1.7043201589565343e-07,
        -5.805967341610246e-09,
        0.0,
        -5.805940202309791e-09,
        -5.500903802750812e-06,
        -33.8220123474517,
        0.0,
        -1.7043203387230276e-07,
        33.82201234744912,
        -5.500903802721135e-06,
        0.0,
        1.0468065271279405e-06,
        62.56648409673684,
        1.3091623776812442,
        1.0
      ],
      "name": "Object_27"
    },
    {
      "mesh": 1,
      "name": "Object_28",
      "skin": 0
    },
    {
      "matrix": [
        27.643314003945967,
        -0.02483837990034108,
        7.012428954001219e-10,
        0.0,
        0.02483811560754645,
        27.643019868888857,
        0.1289430166171215,
        0.0,
        -0.00011585996760613816,
        -0.12894295414581192,
        27.64302879413078,
        0.0,
        0.14666566281245164,
        163.21021667049104,
        79.32147203472508,
        1.0
      ],
      "name": "Object_29"
    },
    {
      "mesh": 2,
      "name": "Object_30",
      "skin": 0
    },
    {
      "matrix": [
        92.94946789742043,
        9.387731367940533e-07,
        -2.0399563676812412e-08,
        0.0,
        -2.0478685842577435e-08,
        -1.5064080060331823e-05,
        -93.31067684664991,
        0.0,
        -9.659849865756166e-07,
        95.64375743722809,
        -1.5440732700432734e-05,
        0.0,
        -2.756717603820142e-07,
        176.37324093037267,
        19.759065545306452,
        1.0
      ],
      "name": "Object_31"
    },
    {
      "mesh": 3,
      "name": "Object_32",
      "skin": 0
    },
    {
      "mesh": 4,
      "name": "Object_33",
      "skin": 0
    }
  ],
  "samplers": [
    {
      "magFilter": 9729,
      "minFilter": 9987,
      "wrapS": 10497,
      "wrapT": 10497
    }
  ],
  "scene": 0,
  "scenes": [
    {
      "name": "Sketchfab_Scene",
      "nodes": [
        0
      ]
    }
  ],
  "skins": [
    {
      "inverseBindMatrices": 20,
      "joints": [
        5,
        6,
        7,
        8,
        9,
        10,
        11,
        12,
        13,
        14,
        15,
        16,
        17,
        18,
        19,
        20,
        21,
        22,
        23,
        24
      ],
      "skeleton": 5
    }
  ],
  "textures": [
    {
      "sampler": 0,
      "source": 0
    },
    {
      "sampler": 0,
      "source": 1
    },
    {
      "sampler": 0,
      "source": 2
    }
  ]
}
